<?xml version="1.0" standalone="no"?>
<!DOCTYPE svg PUBLIC "-//W3C//DTD SVG 20010904//EN"
 "http://www.w3.org/TR/2001/REC-SVG-20010904/DTD/svg10.dtd">
<svg version="1.0" xmlns="http://www.w3.org/2000/svg"
 width="512.000000pt" height="512.000000pt" viewBox="0 0 512.000000 512.000000"
 preserveAspectRatio="xMidYMid meet">
<metadata>
Created by potrace 1.11, written by Peter Selinger 2001-2013
</metadata>
<g transform="translate(0.000000,512.000000) scale(0.100000,-0.100000)"
fill="#000000" stroke="none">
<path d="M3284 5072 l-41 -3 -1 -807 c0 -923 1 -842 -12 -842 -33 0 -158 -72
-214 -122 -11 -10 -22 -18 -25 -18 -3 0 -6 103 -6 230 l0 230 -26 25 c-25 26
-29 26 -169 28 l-144 2 -2 245 c-2 262 -5 285 -57 367 -39 62 -103 110 -187
140 -26 9 -121 12 -365 10 l-330 -2 -55 -27 c-93 -46 -155 -119 -184 -217 -18
-63 -16 -21 -16 -290 l0 -229 -102 0 c-186 0 -183 0 -212 -28 l-26 -27 0 -711
c0 -659 2 -713 18 -733 9 -13 31 -27 47 -31 17 -4 418 -8 893 -7 l863 1 25 25
c23 23 32 56 33 127 1 22 3 21 49 -17 230 -192 581 -173 797 44 183 183 224
460 105 695 -60 119 -170 219 -305 277 l-50 21 0 266 c-1 232 1 266 15 267 8
1 66 1 128 2 l112 0 -2 171 -3 171 -120 0 c-66 -1 -122 2 -125 6 -3 4 -5 81
-5 171 l0 163 83 0 c45 0 83 2 83 5 7 32 2 250 -6 251 -5 0 -44 1 -85 2 l-75
2 0 77 c0 42 -4 80 -8 84 -7 7 -218 12 -293 6z m-1046 -858 c58 -12 66 -39 67
-229 1 -93 0 -175 -2 -181 -3 -9 -77 -12 -259 -12 l-255 0 1 183 c2 195 6 216
54 235 24 10 348 13 394 4z m1272 -1126 c99 -42 154 -124 154 -233 0 -143 -95
-243 -239 -253 -104 -7 -194 47 -239 143 -100 210 110 432 324 343z"/>
<path d="M4246 1990 c-217 -68 -310 -329 -183 -516 68 -102 169 -154 294 -151
93 2 176 36 230 93 23 25 37 33 46 27 6 -6 81 -65 165 -132 l152 -122 0 -574
c0 -541 1 -575 18 -576 9 -1 46 -1 82 -2 l65 0 2 608 c2 396 -1 614 -8 626 -5
11 -69 67 -142 125 -73 58 -150 119 -171 137 -22 18 -54 43 -72 57 -31 23 -33
29 -34 82 0 91 -33 163 -105 234 -48 47 -74 64 -121 79 -78 25 -148 26 -218 5z"/>
<path d="M940 1953 c0 -27 -2 -149 -3 -273 l-2 -225 -327 -165 c-233 -117
-331 -171 -340 -188 -8 -16 -13 -81 -14 -205 -2 -211 -1 -197 -17 -197 -23 0
-97 -45 -136 -82 -20 -20 -50 -63 -66 -95 -25 -50 -29 -69 -29 -143 0 -71 4
-95 27 -143 72 -157 234 -228 414 -184 73 18 169 105 206 186 33 71 31 207 -4
281 -14 30 -45 74 -69 98 -39 39 -112 82 -139 82 -13 0 -12 -13 -14 160 l-1
145 318 161 c176 88 329 169 340 178 20 16 21 26 24 336 l3 320 -86 0 -85 0 0
-47z"/>
<path d="M1537 1993 c-3 -7 -1 -837 2 -869 1 -10 253 -333 319 -409 15 -18 17
-52 18 -341 0 -176 3 -325 6 -330 5 -7 86 -10 156 -5 9 1 12 78 12 350 l0 348
-26 38 c-14 21 -88 116 -164 210 -76 95 -142 181 -147 191 -5 11 -8 200 -7
422 l1 402 -83 0 c-46 0 -85 -3 -87 -7z"/>
<path d="M2390 1735 c0 -216 -3 -265 -14 -265 -7 0 -35 -12 -61 -26 -205 -108
-241 -378 -74 -542 42 -42 78 -61 151 -81 41 -12 118 -57 282 -166 l226 -150
0 -232 0 -233 25 -1 c14 -1 52 -2 85 -2 l60 -2 0 270 c0 217 -3 275 -14 291
-8 11 -98 75 -200 143 l-186 124 41 41 c162 160 127 425 -72 540 -25 14 -53
26 -62 26 -15 0 -17 25 -17 265 l0 265 -85 0 -85 0 0 -265z"/>
<path d="M3244 1433 c1 -467 3 -572 15 -589 8 -11 125 -77 260 -145 227 -115
246 -126 252 -154 27 -139 187 -256 339 -249 331 17 445 451 165 627 -163 102
-390 42 -476 -125 l-19 -38 -183 92 -183 91 0 528 1 529 -86 0 -86 0 1 -567z"/>
</g>
</svg>
